<?xml version="1.0" encoding="UTF-8"?>
<svg id="Camada_1" data-name="Camada 1" xmlns="http://www.w3.org/2000/svg" xmlns:xlink="http://www.w3.org/1999/xlink" viewBox="0 0 2588.26 1000">
  <defs>
    <style>
      .cls-1 {
        fill: #508fcb;
      }

      .cls-2 {
        clip-path: url(#clippath-1);
      }

      .cls-3 {
        fill: #13263d;
      }

      .cls-4 {
        clip-path: url(#clippath-2);
      }

      .cls-5 {
        clip-path: url(#clippath);
      }
    </style>
    <clipPath id="clippath">
      <path class="cls-3" d="M422.88,784.83h-77.1v-126.37h-96.72v126.37h-77.1v-334.87h77.1v131.39h96.72v-131.39h77.1v334.87Z"/>
    </clipPath>
    <clipPath id="clippath-1">
      <path class="cls-3" d="M595.78,784.83c-17.34,0-33.46-3.19-48.36-9.58-14.91-5.77-28.44-14.6-40.6-26.46-12.17-12.16-21.44-25.85-27.83-41.06-6.69-14.6-10.19-30.87-10.49-48.82v-209.41h77.1v208.95c0,13.39,5.02,25.09,15.06,35.13,9.42,9.43,21.29,14.14,35.59,14.14,6.69,0,13.07-1.37,19.16-4.11,6.08-2.74,11.41-6.39,15.97-10.95s8.06-9.88,10.49-15.97c2.43-6.69,3.65-13.23,3.65-19.62v-207.58h77.1v207.12c.3,16.42-2.74,32.85-9.12,49.27-7.3,16.42-16.27,29.96-26.92,40.6-11.56,11.56-24.94,20.69-40.15,27.37-15.51,6.69-31.94,10.34-49.27,10.95h-1.37Z"/>
    </clipPath>
    <clipPath id="clippath-2">
      <path class="cls-3" d="M934.75,583.18c14.29,10.65,25.55,23.42,33.76,38.32,8.21,15.21,12.32,31.64,12.32,49.27,0,16.42-3.35,31.18-10.04,44.25-7,13.99-16.12,26.16-27.37,36.5-11.56,10.34-25.25,18.41-41.06,24.18-16.42,6.09-33,9.12-49.73,9.12h-98.09v-336.24l88.96.46c14.9,0,28.13,2.44,39.69,7.3,12.16,4.87,23.11,11.41,32.85,19.62,9.42,8.52,16.88,18.25,22.36,29.2,5.17,12.17,7.76,24.18,7.76,36.04,0,15.82-3.81,29.81-11.41,41.97ZM843.97,556.72c7.6-.3,13.69-2.12,18.25-5.47,4.56-3.04,6.84-6.39,6.84-10.04,0-3.04-2.28-6.39-6.84-10.04-5.18-3.34-11.41-5.02-18.71-5.02h-11.86v30.57h12.32ZM852.63,707.27c7.6,0,14.14-1.06,19.62-3.19,4.86-1.52,10.34-4.11,16.42-7.76,4.56-3.34,8.21-7.3,10.95-11.86,2.74-4.26,4.11-8.82,4.11-13.69s-1.37-9.58-4.11-14.14c-2.74-4.56-6.39-8.51-10.95-11.86-4.87-3.34-10.34-6.08-16.42-8.21-6.39-1.82-12.93-2.74-19.62-2.74h-20.99v73.45h20.99Z"/>
    </clipPath>
  </defs>
  <g>
    <g>
      <path class="cls-3" d="M662.63,390.42c23.3-23.3,46.59-46.59,69.89-69.89,4.56-4.56-2.51-11.63-7.07-7.07-23.3,23.3-46.59,46.59-69.89,69.89-4.56,4.56,2.51,11.63,7.07,7.07h0Z"/>
      <path class="cls-3" d="M535.57,383.35c-23.3-23.3-46.59-46.59-69.89-69.89-4.56-4.56-11.63,2.51-7.07,7.07,23.3,23.3,46.59,46.59,69.89,69.89,4.56,4.56,11.63-2.51,7.07-7.07h0Z"/>
    </g>
    <path class="cls-3" d="M600.56,378.25v-163.08c0-6.43-10-6.45-10,0v163.08c0,6.43,10,6.45,10,0h0Z"/>
  </g>
  <g>
    <path class="cls-3" d="M422.88,784.83h-77.1v-126.37h-96.72v126.37h-77.1v-334.87h77.1v131.39h96.72v-131.39h77.1v334.87Z"/>
    <g class="cls-5">
      <g>
        <path class="cls-1" d="M554.62,518.13c9.62-20.52,2.04-44.13-16.25-55.63-19.43-12.21-44.44-7.02-57.74,10.33-13.98,18.25-11.39,43.36,4.77,58.48,16.7,15.63,42.28,15.66,58.96.46l24.01,17.67c4.57,3.37,9.59,5.4,15.82,5.41l215.29.03-.1,29.13-216.14.03c-5.12,0-9.12,2.14-12.41,5.43l-40.4,40.39c-3.22,3.21-5.25,7.4-5.24,12.08l.04,34.68-50.13,50.18-47.49.12c-9.97.03-17.61,7.71-17.61,17.9v127.8s-21.75.05-21.75.05c-24.2.05-43.7-19.36-43.7-43.91v-367.05c0-25.02,20.15-44.1,44.8-43.91l11.2.09-.07,87.31c0,7.35,3,13.26,7.61,18.5l27.23,30.97.21,47.8c-22.51,4.67-37.11,25.12-34.74,47.5,2.3,21.8,20.96,38.97,43.51,38.93,22-.04,40.96-16.71,43.31-39.09,2.3-21.93-12.18-42.72-34.65-47.34l-.08-44.72c-.01-7.44-3.1-14.05-8.28-19.14l-26.53-30.28-.15-90.54h199.66s.07,59.08.07,59.08c.01,9.94,7.76,17.65,17.87,17.65h163.94s-.02,42.89-.02,42.89l-217.78-.06-27.04-19.22Z"/>
        <path class="cls-1" d="M799.49,460.81l-.12,16.25h-164.35s-.02-59.27-.02-59.27l119.53.03c24.5-.5,44.19,18.23,44.96,42.98Z"/>
        <path class="cls-1" d="M799.44,828.98c-.11,24.23-19.45,43.69-43.7,43.69h-30.32s0-67.79,0-67.79h73.99s.03,24.11.03,24.11Z"/>
        <circle class="cls-1" cx="515.14" cy="499.42" r="26.27"/>
        <circle class="cls-1" cx="444.21" cy="645.25" r="26.27"/>
        <g>
          <path class="cls-1" d="M513.46,808.68c-.02-5.91,2.33-10.03,6.22-13.64l79.52-79.7c18.43,13.56,43.39,10.42,58.1-5.36,15.76-16.91,15.71-42.62.68-59.41-14.95-16.69-40.04-19.45-58.15-6.56-18.39,13.1-24.43,37.99-12.34,58.51l-80.69,80.73c-6.93,6.8-10.47,15.21-10.78,24.96l.02,64.48h-68.6s-.01-128.37-.01-128.37l47.27.03c4.79,0,8.82-1.81,12.34-4.89l50.69-50.77c3.14-3.15,4.8-7.33,4.82-11.75l.15-34.8,40.69-40.62,216.03-.04.05,26.69-37.19-.03c-5,0-9.3,2.08-12.73,5.51l-40.37,40.4c-3.09,3.09-5.12,7.11-5.13,11.6l-.06,35.09-50.15,50.33-47.94.07c-9.49.01-17,7.76-17.01,17.35v84.18s-75.4,0-75.4,0v-64.01Z"/>
          <path class="cls-1" d="M606.29,872.7l-.02-84.1,46.61-.05c5.17,0,9.73-1.83,13.35-5.45l49.64-49.64c3.86-3.76,5.54-8.46,5.54-13.86v-33.28s40.56-40.59,40.56-40.59l37.48-.14v141.81s-73.21,0-73.21,0c-10.1-.08-17.96,7.37-18.29,17.5l.06,67.8h-101.73Z"/>
          <circle class="cls-1" cx="625.01" cy="680.24" r="26.27"/>
        </g>
      </g>
    </g>
  </g>
  <g>
    <path class="cls-3" d="M595.78,784.83c-17.34,0-33.46-3.19-48.36-9.58-14.91-5.77-28.44-14.6-40.6-26.46-12.17-12.16-21.44-25.85-27.83-41.06-6.69-14.6-10.19-30.87-10.49-48.82v-209.41h77.1v208.95c0,13.39,5.02,25.09,15.06,35.13,9.42,9.43,21.29,14.14,35.59,14.14,6.69,0,13.07-1.37,19.16-4.11,6.08-2.74,11.41-6.39,15.97-10.95s8.06-9.88,10.49-15.97c2.43-6.69,3.65-13.23,3.65-19.62v-207.58h77.1v207.12c.3,16.42-2.74,32.85-9.12,49.27-7.3,16.42-16.27,29.96-26.92,40.6-11.56,11.56-24.94,20.69-40.15,27.37-15.51,6.69-31.94,10.34-49.27,10.95h-1.37Z"/>
    <g class="cls-2">
      <g>
        <path class="cls-1" d="M567.92,520.88c9.55-20.36,2.03-43.79-16.13-55.2-19.28-12.12-44.1-6.96-57.29,10.25-13.87,18.1-11.3,43.03,4.73,58.03,16.57,15.51,41.95,15.54,58.51.45l23.83,17.53c4.54,3.34,9.52,5.36,15.7,5.36l213.63.03-.1,28.91-214.46.03c-5.08,0-9.05,2.12-12.32,5.39l-40.09,40.07c-3.19,3.19-5.2,7.35-5.2,11.98l.04,34.41-49.75,49.79-47.12.12c-9.9.03-17.47,7.65-17.47,17.77v126.81s-21.58.05-21.58.05c-24.01.05-43.36-19.21-43.36-43.57v-364.2c0-24.83,19.99-43.76,44.45-43.57l11.12.09-.07,86.63c0,7.29,2.97,13.15,7.55,18.36l27.02,30.73.21,47.43c-22.33,4.63-36.82,24.92-34.47,47.13,2.28,21.63,20.8,38.67,43.17,38.63s40.64-16.58,42.97-38.78c2.28-21.76-12.08-42.39-34.38-46.97l-.08-44.38c-.01-7.38-3.07-13.94-8.22-18.99l-26.32-30.05-.15-89.84h198.11s.07,58.62.07,58.62c.01,9.87,7.7,17.51,17.73,17.51h162.67s-.02,42.56-.02,42.56l-216.09-.05-26.83-19.07Z"/>
        <path class="cls-1" d="M810.89,464l-.12,16.13h-163.08s-.02-58.81-.02-58.81l118.61.03c24.31-.49,43.85,18.09,44.61,42.65Z"/>
        <path class="cls-1" d="M810.85,829.32c-.11,24.04-19.3,43.35-43.36,43.35h-30.08s0-67.27,0-67.27h73.42s.03,23.92.03,23.92Z"/>
        <circle class="cls-1" cx="528.75" cy="502.31" r="26.07"/>
        <circle class="cls-1" cx="458.37" cy="647.01" r="26.07"/>
        <g>
          <path class="cls-1" d="M527.09,809.17c-.02-5.86,2.31-9.95,6.17-13.53l78.9-79.08c18.28,13.45,43.06,10.34,57.65-5.32,15.64-16.78,15.59-42.29.67-58.95-14.84-16.56-39.73-19.3-57.7-6.51-18.25,13-24.24,37.7-12.24,58.05l-80.07,80.1c-6.88,6.74-10.38,15.09-10.7,24.76l.02,63.98h-68.07s-.01-127.37-.01-127.37l46.9.03c4.76,0,8.76-1.79,12.24-4.86l50.3-50.37c3.12-3.12,4.76-7.27,4.78-11.65l.14-34.53,40.37-40.3,214.35-.04.05,26.49-36.9-.03c-4.96,0-9.23,2.07-12.63,5.47l-40.06,40.08c-3.07,3.07-5.08,7.05-5.09,11.51l-.05,34.82-49.77,49.94-47.57.07c-9.41.01-16.87,7.7-16.87,17.21v83.53s-74.82,0-74.82,0v-63.52Z"/>
          <path class="cls-1" d="M619.19,872.7l-.02-83.44,46.25-.05c5.13,0,9.66-1.82,13.25-5.41l49.26-49.25c3.83-3.73,5.5-8.39,5.5-13.75v-33.02s40.24-40.27,40.24-40.27l37.19-.14v140.71s-72.64,0-72.64,0c-10.02-.08-17.82,7.32-18.15,17.36l.06,67.27h-100.94Z"/>
          <circle class="cls-1" cx="637.77" cy="681.73" r="26.07"/>
        </g>
      </g>
    </g>
  </g>
  <g>
    <path class="cls-3" d="M934.75,583.18c14.29,10.65,25.55,23.42,33.76,38.32,8.21,15.21,12.32,31.64,12.32,49.27,0,16.42-3.35,31.18-10.04,44.25-7,13.99-16.12,26.16-27.37,36.5-11.56,10.34-25.25,18.41-41.06,24.18-16.42,6.09-33,9.12-49.73,9.12h-98.09v-336.24l88.96.46c14.9,0,28.13,2.44,39.69,7.3,12.16,4.87,23.11,11.41,32.85,19.62,9.42,8.52,16.88,18.25,22.36,29.2,5.17,12.17,7.76,24.18,7.76,36.04,0,15.82-3.81,29.81-11.41,41.97ZM843.97,556.72c7.6-.3,13.69-2.12,18.25-5.47,4.56-3.04,6.84-6.39,6.84-10.04,0-3.04-2.28-6.39-6.84-10.04-5.18-3.34-11.41-5.02-18.71-5.02h-11.86v30.57h12.32ZM852.63,707.27c7.6,0,14.14-1.06,19.62-3.19,4.86-1.52,10.34-4.11,16.42-7.76,4.56-3.34,8.21-7.3,10.95-11.86,2.74-4.26,4.11-8.82,4.11-13.69s-1.37-9.58-4.11-14.14c-2.74-4.56-6.39-8.51-10.95-11.86-4.87-3.34-10.34-6.08-16.42-8.21-6.39-1.82-12.93-2.74-19.62-2.74h-20.99v73.45h20.99Z"/>
    <g class="cls-4">
      <g>
        <path class="cls-1" d="M588.45,520.88c9.55-20.36,2.03-43.79-16.13-55.2-19.28-12.12-44.1-6.96-57.29,10.25-13.87,18.1-11.3,43.03,4.73,58.03,16.57,15.51,41.95,15.54,58.51.45l23.83,17.53c4.54,3.34,9.52,5.36,15.7,5.36l213.63.03-.1,28.91-214.46.03c-5.08,0-9.05,2.12-12.32,5.39l-40.09,40.07c-3.19,3.19-5.2,7.35-5.2,11.98l.04,34.41-49.75,49.79-47.12.12c-9.9.03-17.47,7.65-17.47,17.77v126.81s-21.58.05-21.58.05c-24.01.05-43.36-19.21-43.36-43.57v-364.2c0-24.83,19.99-43.76,44.45-43.57l11.12.09-.07,86.63c0,7.29,2.97,13.15,7.55,18.36l27.02,30.73.21,47.43c-22.33,4.63-36.82,24.92-34.47,47.13,2.28,21.63,20.8,38.67,43.17,38.63s40.64-16.58,42.97-38.78c2.28-21.76-12.08-42.39-34.38-46.97l-.08-44.38c-.01-7.38-3.07-13.94-8.22-18.99l-26.32-30.05-.15-89.84h198.11s.07,58.62.07,58.62c.01,9.87,7.7,17.51,17.73,17.51h162.67s-.02,42.56-.02,42.56l-216.09-.05-26.83-19.07Z"/>
        <path class="cls-1" d="M831.42,464l-.12,16.13h-163.08s-.02-58.81-.02-58.81l118.61.03c24.31-.49,43.85,18.09,44.61,42.65Z"/>
        <path class="cls-1" d="M831.38,829.32c-.11,24.04-19.3,43.35-43.36,43.35h-30.08s0-67.27,0-67.27h73.42s.03,23.92.03,23.92Z"/>
        <circle class="cls-1" cx="549.28" cy="502.31" r="26.07"/>
        <circle class="cls-1" cx="478.9" cy="647.01" r="26.07"/>
        <g>
          <path class="cls-1" d="M547.62,809.17c-.02-5.86,2.31-9.95,6.17-13.53l78.9-79.08c18.28,13.45,43.06,10.34,57.65-5.32,15.64-16.78,15.59-42.29.67-58.95-14.84-16.56-39.73-19.3-57.7-6.51-18.25,13-24.24,37.7-12.24,58.05l-80.07,80.1c-6.88,6.74-10.38,15.09-10.7,24.76l.02,63.98h-68.07s-.01-127.37-.01-127.37l46.9.03c4.76,0,8.76-1.79,12.24-4.86l50.3-50.37c3.12-3.12,4.76-7.27,4.78-11.65l.14-34.53,40.37-40.3,214.35-.04.05,26.49-36.9-.03c-4.96,0-9.23,2.07-12.63,5.47l-40.06,40.08c-3.07,3.07-5.08,7.05-5.09,11.51l-.05,34.82-49.77,49.94-47.57.07c-9.41.01-16.87,7.7-16.87,17.21v83.53s-74.82,0-74.82,0v-63.52Z"/>
          <path class="cls-1" d="M639.72,872.7l-.02-83.44,46.25-.05c5.13,0,9.66-1.82,13.25-5.41l49.26-49.25c3.83-3.73,5.5-8.39,5.5-13.75v-33.02s40.24-40.27,40.24-40.27l37.19-.14v140.71s-72.64,0-72.64,0c-10.02-.08-17.82,7.32-18.15,17.36l.06,67.27h-100.94Z"/>
          <circle class="cls-1" cx="658.3" cy="681.73" r="26.07"/>
        </g>
      </g>
    </g>
  </g>
  <g>
    <path class="cls-3" d="M1129.21,708.31c-16.13-9.36-28.88-22.13-38.24-38.31-9.36-16.18-14.04-34.02-14.04-53.51s4.68-37.48,14.04-53.66c9.36-16.18,22.1-28.95,38.24-38.31,16.13-9.36,33.85-14.04,53.15-14.04,12.77,0,24.73,2.02,35.9,6.07,11.16,4.05,21.32,9.72,30.48,17.03,1.17.97,1.75,2,1.75,3.07,0,.97-.39,2-1.17,3.07l-4.82,6.14c-.98,1.17-2,1.75-3.07,1.75-.88,0-1.85-.39-2.92-1.17-8.19-6.04-17.01-10.77-26.46-14.18-9.46-3.41-19.35-5.12-29.68-5.12-15.99,0-30.68,3.93-44.08,11.77-13.4,7.85-24.05,18.59-31.95,32.24-7.9,13.65-11.84,28.76-11.84,45.33s3.95,31.51,11.84,45.11,18.57,24.32,32.02,32.17c13.45,7.85,28.12,11.77,44.01,11.77,19.98,0,38.7-6.73,56.15-20.18.97-.68,1.9-1.02,2.78-1.02,1.27,0,2.39.64,3.36,1.9l4.83,6.14c.78,1.07,1.17,2.1,1.17,3.07s-.49,1.9-1.46,2.78c-9.36,7.51-19.67,13.4-30.92,17.69-11.26,4.29-23.23,6.43-35.9,6.43-19.3,0-37.02-4.68-53.15-14.04Z"/>
    <path class="cls-3" d="M1305.03,719.13h-8.63c-1.37,0-2.44-.39-3.22-1.17-.78-.78-1.17-1.85-1.17-3.22v-196.8c0-2.83,1.46-4.24,4.39-4.24h8.63c2.83,0,4.24,1.41,4.24,4.24v196.8c0,2.92-1.41,4.39-4.24,4.39Z"/>
    <path class="cls-3" d="M1369.51,717.96c-.78-.78-1.17-1.85-1.17-3.22v-196.8c0-2.83,1.46-4.24,4.39-4.24h73.54c13.65,0,25.56,2.66,35.75,7.97,10.18,5.31,18.06,12.89,23.61,22.74,5.56,9.85,8.33,21.3,8.33,34.36,0,14.62-3.41,27.05-10.23,37.28-6.82,10.24-16.38,17.69-28.66,22.37l35.09,75.59c.39.78.58,1.51.58,2.19,0,.88-.34,1.59-1.02,2.12-.68.54-1.61.8-2.78.8h-10.23c-2.44,0-4.14-1.07-5.12-3.22l-33.19-73.11c-5.26.78-10.53,1.17-15.79,1.17h-57.02v70.77c0,2.92-1.41,4.39-4.24,4.39h-8.63c-1.37,0-2.44-.39-3.22-1.17ZM1472.15,622.05c7.8-4,13.82-9.7,18.06-17.11,4.24-7.41,6.36-16.08,6.36-26.03s-2.12-18.79-6.36-26.24c-4.24-7.46-10.26-13.16-18.06-17.11-7.8-3.95-16.91-5.92-27.34-5.92h-59.22v98.4h59.22c10.43,0,19.54-2,27.34-5.99Z"/>
    <path class="cls-3" d="M1590.07,708.31c-16.13-9.36-28.88-22.13-38.24-38.31-9.36-16.18-14.04-34.02-14.04-53.51s4.68-37.48,14.04-53.66c9.36-16.18,22.1-28.95,38.24-38.31,16.13-9.36,33.85-14.04,53.15-14.04,12.77,0,24.73,2.02,35.9,6.07,11.16,4.05,21.32,9.72,30.48,17.03,1.17.97,1.75,2,1.75,3.07,0,.97-.39,2-1.17,3.07l-4.82,6.14c-.98,1.17-2,1.75-3.07,1.75-.88,0-1.85-.39-2.92-1.17-8.19-6.04-17.01-10.77-26.46-14.18-9.46-3.41-19.35-5.12-29.68-5.12-15.99,0-30.68,3.93-44.08,11.77-13.4,7.85-24.05,18.59-31.95,32.24-7.9,13.65-11.84,28.76-11.84,45.33s3.95,31.51,11.84,45.11c7.9,13.6,18.57,24.32,32.02,32.17,13.45,7.85,28.12,11.77,44.01,11.77,19.98,0,38.7-6.73,56.15-20.18.97-.68,1.9-1.02,2.78-1.02,1.27,0,2.39.64,3.36,1.9l4.83,6.14c.78,1.07,1.17,2.1,1.17,3.07s-.49,1.9-1.46,2.78c-9.36,7.51-19.67,13.4-30.92,17.69-11.26,4.29-23.23,6.43-35.9,6.43-19.3,0-37.02-4.68-53.15-14.04Z"/>
    <path class="cls-3" d="M1785.26,711.67c-12.53-7.51-22.03-18.03-28.51-31.58-6.48-13.55-9.72-29.29-9.72-47.23v-115.07c0-2.92,1.41-4.39,4.24-4.39h8.63c2.83,0,4.24,1.46,4.24,4.39v114.05c0,15.01,2.53,28.12,7.6,39.33,5.07,11.21,12.57,19.91,22.52,26.1,9.94,6.19,21.98,9.28,36.11,9.28s26-3.07,35.9-9.21c9.89-6.14,17.35-14.82,22.37-26.03,5.02-11.21,7.53-24.37,7.53-39.48v-114.05c0-1.36.39-2.44,1.17-3.22.78-.78,1.85-1.17,3.22-1.17h8.48c1.36,0,2.44.39,3.22,1.17.78.78,1.17,1.85,1.17,3.22v115.07c0,17.94-3.24,33.68-9.72,47.23-6.48,13.55-15.96,24.08-28.44,31.58-12.48,7.5-27.44,11.26-44.89,11.26s-32.58-3.75-45.11-11.26Z"/>
    <path class="cls-3" d="M1979.65,719.13h-8.63c-1.37,0-2.44-.39-3.22-1.17-.78-.78-1.17-1.85-1.17-3.22v-196.8c0-2.83,1.46-4.24,4.39-4.24h8.63c2.83,0,4.24,1.41,4.24,4.24v196.8c0,2.92-1.41,4.39-4.24,4.39Z"/>
    <path class="cls-3" d="M2106.12,717.96c-.78.78-1.85,1.17-3.22,1.17h-8.63c-2.83,0-4.24-1.46-4.24-4.39v-184.67h-64.92c-2.83,0-4.24-1.41-4.24-4.24v-7.9c0-2.83,1.41-4.24,4.24-4.24h147.09c2.83,0,4.24,1.41,4.24,4.24v7.9c0,2.83-1.41,4.24-4.24,4.24h-64.92v184.67c0,1.37-.39,2.44-1.17,3.22Z"/>
    <path class="cls-3" d="M2236.18,708.31c-16.13-9.36-28.88-22.13-38.23-38.31-9.36-16.18-14.04-34.02-14.04-53.51s4.68-37.48,14.04-53.66c9.36-16.18,22.1-28.95,38.23-38.31,16.13-9.36,33.85-14.04,53.15-14.04s37.16,4.68,53.3,14.04c16.13,9.36,28.88,22.13,38.23,38.31,9.36,16.18,14.04,34.07,14.04,53.66s-4.68,37.33-14.04,53.51c-9.36,16.18-22.1,28.95-38.23,38.31-16.13,9.36-33.9,14.04-53.3,14.04s-37.02-4.68-53.15-14.04ZM2333.48,693.76c13.45-7.85,24.13-18.57,32.02-32.17,7.9-13.6,11.84-28.63,11.84-45.11s-3.95-31.68-11.84-45.33c-7.89-13.65-18.57-24.39-32.02-32.24-13.45-7.84-28.17-11.77-44.16-11.77s-30.68,3.93-44.08,11.77c-13.4,7.85-24.05,18.59-31.95,32.24-7.89,13.65-11.84,28.76-11.84,45.33s3.95,31.51,11.84,45.11c7.9,13.6,18.57,24.32,32.02,32.17,13.45,7.85,28.12,11.77,44.01,11.77s30.71-3.92,44.16-11.77Z"/>
  </g>
</svg>